<?xml version="1.0" encoding="UTF-8"?>
<svg width="32" height="32" viewBox="0 0 32 32" fill="none" xmlns="http://www.w3.org/2000/svg">
  <path d="M16 32C24.8366 32 32 24.8366 32 16C32 7.16344 24.8366 0 16 0C7.16344 0 0 7.16344 0 16C0 24.8366 7.16344 32 16 32Z" fill="#E6007A"/>
  <path d="M16 20.5C18.4853 20.5 20.5 18.4853 20.5 16C20.5 13.5147 18.4853 11.5 16 11.5C13.5147 11.5 11.5 13.5147 11.5 16C11.5 18.4853 13.5147 20.5 16 20.5Z" fill="white"/>
  <path d="M16 8C17.1046 8 18 7.10457 18 6C18 4.89543 17.1046 4 16 4C14.8954 4 14 4.89543 14 6C14 7.10457 14.8954 8 16 8Z" fill="white"/>
  <path d="M16 28C17.1046 28 18 27.1046 18 26C18 24.8954 17.1046 24 16 24C14.8954 24 14 24.8954 14 26C14 27.1046 14.8954 28 16 28Z" fill="white"/>
  <path d="M26 18C27.1046 18 28 17.1046 28 16C28 14.8954 27.1046 14 26 14C24.8954 14 24 14.8954 24 16C24 17.1046 24.8954 18 26 18Z" fill="white"/>
  <path d="M6 18C7.10457 18 8 17.1046 8 16C8 14.8954 7.10457 14 6 14C4.89543 14 4 14.8954 4 16C4 17.1046 4.89543 18 6 18Z" fill="white"/>
  <path d="M22.4853 9.51472C23.2663 8.73367 23.2663 7.46683 22.4853 6.68579C21.7042 5.90474 20.4374 5.90474 19.6564 6.68579C18.8753 7.46683 18.8753 8.73367 19.6564 9.51472C20.4374 10.2958 21.7042 10.2958 22.4853 9.51472Z" fill="white"/>
  <path d="M22.4853 25.3137C23.2663 24.5327 23.2663 23.2658 22.4853 22.4848C21.7042 21.7037 20.4374 21.7037 19.6564 22.4848C18.8753 23.2658 18.8753 24.5327 19.6564 25.3137C20.4374 26.0948 21.7042 26.0948 22.4853 25.3137Z" fill="white"/>
  <path d="M12.3431 25.3137C13.1242 24.5327 13.1242 23.2658 12.3431 22.4848C11.5621 21.7037 10.2953 21.7037 9.51422 22.4848C8.73317 23.2658 8.73317 24.5327 9.51422 25.3137C10.2953 26.0948 11.5621 26.0948 12.3431 25.3137Z" fill="white"/>
  <path d="M12.3431 9.51472C13.1242 8.73367 13.1242 7.46683 12.3431 6.68579C11.5621 5.90474 10.2953 5.90474 9.51422 6.68579C8.73317 7.46683 8.73317 8.73367 9.51422 9.51472C10.2953 10.2958 11.5621 10.2958 12.3431 9.51472Z" fill="white"/>
</svg> 